<?xml version="1.0" encoding="UTF-8" standalone="no"?>
<!DOCTYPE svg PUBLIC "-//W3C//DTD SVG 1.1//EN"
 "http://www.w3.org/Graphics/SVG/1.1/DTD/svg11.dtd">
<!-- Generated by graphviz version 14.1.1 (20251213.1925)
 -->
<!-- Title: InheritanceTree Pages: 1 -->
<svg width="416pt" height="717pt"
 viewBox="0.00 0.00 416.00 717.00" xmlns="http://www.w3.org/2000/svg" xmlns:xlink="http://www.w3.org/1999/xlink">
<g id="graph0" class="graph" transform="scale(1 1) rotate(0) translate(4 712.5)">
<title>InheritanceTree</title>
<polygon fill="white" stroke="none" points="-4,4 -4,-712.5 411.75,-712.5 411.75,4 -4,4"/>
<text xml:space="preserve" text-anchor="middle" x="203.88" y="-7.2" font-family="Times New Roman,serif" font-size="14.00">simple_qr &#45; Inheritance Hierarchy</text>
<!-- QR_ENCODER -->
<g id="node1" class="node">
<title>QR_ENCODER</title>
<path fill="none" stroke="black" d="M130.38,-60.5C130.38,-60.5 49.12,-60.5 49.12,-60.5 43.12,-60.5 37.12,-54.5 37.12,-48.5 37.12,-48.5 37.12,-36.5 37.12,-36.5 37.12,-30.5 43.12,-24.5 49.12,-24.5 49.12,-24.5 130.38,-24.5 130.38,-24.5 136.38,-24.5 142.38,-30.5 142.38,-36.5 142.38,-36.5 142.38,-48.5 142.38,-48.5 142.38,-54.5 136.38,-60.5 130.38,-60.5"/>
<text xml:space="preserve" text-anchor="middle" x="89.75" y="-37.45" font-family="Times New Roman,serif" font-size="14.00">QR_ENCODER</text>
</g>
<!-- QR_ERROR_CORRECTION -->
<g id="node2" class="node">
<title>QR_ERROR_CORRECTION</title>
<path fill="none" stroke="black" d="M167.5,-132.5C167.5,-132.5 12,-132.5 12,-132.5 6,-132.5 0,-126.5 0,-120.5 0,-120.5 0,-108.5 0,-108.5 0,-102.5 6,-96.5 12,-96.5 12,-96.5 167.5,-96.5 167.5,-96.5 173.5,-96.5 179.5,-102.5 179.5,-108.5 179.5,-108.5 179.5,-120.5 179.5,-120.5 179.5,-126.5 173.5,-132.5 167.5,-132.5"/>
<text xml:space="preserve" text-anchor="middle" x="89.75" y="-109.45" font-family="Times New Roman,serif" font-size="14.00">QR_ERROR_CORRECTION</text>
</g>
<!-- QR_GALOIS -->
<g id="node3" class="node">
<title>QR_GALOIS</title>
<path fill="none" stroke="black" d="M123.25,-204.5C123.25,-204.5 56.25,-204.5 56.25,-204.5 50.25,-204.5 44.25,-198.5 44.25,-192.5 44.25,-192.5 44.25,-180.5 44.25,-180.5 44.25,-174.5 50.25,-168.5 56.25,-168.5 56.25,-168.5 123.25,-168.5 123.25,-168.5 129.25,-168.5 135.25,-174.5 135.25,-180.5 135.25,-180.5 135.25,-192.5 135.25,-192.5 135.25,-198.5 129.25,-204.5 123.25,-204.5"/>
<text xml:space="preserve" text-anchor="middle" x="89.75" y="-181.45" font-family="Times New Roman,serif" font-size="14.00">QR_GALOIS</text>
</g>
<!-- QR_MATRIX -->
<g id="node4" class="node">
<title>QR_MATRIX</title>
<path fill="none" stroke="black" d="M124.75,-276.5C124.75,-276.5 54.75,-276.5 54.75,-276.5 48.75,-276.5 42.75,-270.5 42.75,-264.5 42.75,-264.5 42.75,-252.5 42.75,-252.5 42.75,-246.5 48.75,-240.5 54.75,-240.5 54.75,-240.5 124.75,-240.5 124.75,-240.5 130.75,-240.5 136.75,-246.5 136.75,-252.5 136.75,-252.5 136.75,-264.5 136.75,-264.5 136.75,-270.5 130.75,-276.5 124.75,-276.5"/>
<text xml:space="preserve" text-anchor="middle" x="89.75" y="-253.45" font-family="Times New Roman,serif" font-size="14.00">QR_MATRIX</text>
</g>
<!-- QR_VERSION -->
<g id="node5" class="node">
<title>QR_VERSION</title>
<path fill="none" stroke="black" d="M127.75,-348.5C127.75,-348.5 51.75,-348.5 51.75,-348.5 45.75,-348.5 39.75,-342.5 39.75,-336.5 39.75,-336.5 39.75,-324.5 39.75,-324.5 39.75,-318.5 45.75,-312.5 51.75,-312.5 51.75,-312.5 127.75,-312.5 127.75,-312.5 133.75,-312.5 139.75,-318.5 139.75,-324.5 139.75,-324.5 139.75,-336.5 139.75,-336.5 139.75,-342.5 133.75,-348.5 127.75,-348.5"/>
<text xml:space="preserve" text-anchor="middle" x="89.75" y="-325.45" font-family="Times New Roman,serif" font-size="14.00">QR_VERSION</text>
</g>
<!-- SIMPLE_QR -->
<g id="node6" class="node">
<title>SIMPLE_QR</title>
<path fill="none" stroke="black" d="M122.88,-420.5C122.88,-420.5 56.62,-420.5 56.62,-420.5 50.62,-420.5 44.62,-414.5 44.62,-408.5 44.62,-408.5 44.62,-396.5 44.62,-396.5 44.62,-390.5 50.62,-384.5 56.62,-384.5 56.62,-384.5 122.88,-384.5 122.88,-384.5 128.88,-384.5 134.88,-390.5 134.88,-396.5 134.88,-396.5 134.88,-408.5 134.88,-408.5 134.88,-414.5 128.88,-420.5 122.88,-420.5"/>
<text xml:space="preserve" text-anchor="middle" x="89.75" y="-397.45" font-family="Times New Roman,serif" font-size="14.00">SIMPLE_QR</text>
</g>
<!-- ADVERSARIAL_TESTS -->
<g id="node7" class="node">
<title>ADVERSARIAL_TESTS</title>
<path fill="none" stroke="black" d="M156.62,-636.5C156.62,-636.5 22.88,-636.5 22.88,-636.5 16.88,-636.5 10.88,-630.5 10.88,-624.5 10.88,-624.5 10.88,-612.5 10.88,-612.5 10.88,-606.5 16.88,-600.5 22.88,-600.5 22.88,-600.5 156.62,-600.5 156.62,-600.5 162.62,-600.5 168.62,-606.5 168.62,-612.5 168.62,-612.5 168.62,-624.5 168.62,-624.5 168.62,-630.5 162.62,-636.5 156.62,-636.5"/>
<text xml:space="preserve" text-anchor="middle" x="89.75" y="-613.45" font-family="Times New Roman,serif" font-size="14.00">ADVERSARIAL_TESTS</text>
</g>
<!-- TEST_SET_BASE -->
<g id="node8" class="node">
<title>TEST_SET_BASE</title>
<path fill="none" stroke="black" d="M395.75,-564.5C395.75,-564.5 299.5,-564.5 299.5,-564.5 293.5,-564.5 287.5,-558.5 287.5,-552.5 287.5,-552.5 287.5,-540.5 287.5,-540.5 287.5,-534.5 293.5,-528.5 299.5,-528.5 299.5,-528.5 395.75,-528.5 395.75,-528.5 401.75,-528.5 407.75,-534.5 407.75,-540.5 407.75,-540.5 407.75,-552.5 407.75,-552.5 407.75,-558.5 401.75,-564.5 395.75,-564.5"/>
<text xml:space="preserve" text-anchor="middle" x="347.62" y="-541.45" font-family="Times New Roman,serif" font-size="14.00">TEST_SET_BASE</text>
</g>
<!-- ADVERSARIAL_TESTS&#45;&gt;TEST_SET_BASE -->
<g id="edge1" class="edge">
<title>ADVERSARIAL_TESTS&#45;&gt;TEST_SET_BASE</title>
<path fill="none" stroke="black" d="M156.75,-600.28C156.75,-581.67 156.75,-555.5 156.75,-555.5 156.75,-555.5 275.72,-555.5 275.72,-555.5"/>
<polygon fill="none" stroke="black" points="275.72,-559 285.72,-555.5 275.72,-552 275.72,-559"/>
</g>
<!-- LIB_TESTS -->
<g id="node9" class="node">
<title>LIB_TESTS</title>
<path fill="none" stroke="black" d="M119.88,-564.5C119.88,-564.5 59.62,-564.5 59.62,-564.5 53.62,-564.5 47.62,-558.5 47.62,-552.5 47.62,-552.5 47.62,-540.5 47.62,-540.5 47.62,-534.5 53.62,-528.5 59.62,-528.5 59.62,-528.5 119.88,-528.5 119.88,-528.5 125.88,-528.5 131.88,-534.5 131.88,-540.5 131.88,-540.5 131.88,-552.5 131.88,-552.5 131.88,-558.5 125.88,-564.5 119.88,-564.5"/>
<text xml:space="preserve" text-anchor="middle" x="89.75" y="-541.45" font-family="Times New Roman,serif" font-size="14.00">LIB_TESTS</text>
</g>
<!-- LIB_TESTS&#45;&gt;TEST_SET_BASE -->
<g id="edge2" class="edge">
<title>LIB_TESTS&#45;&gt;TEST_SET_BASE</title>
<path fill="none" stroke="black" d="M132.33,-546.5C132.33,-546.5 275.62,-546.5 275.62,-546.5"/>
<polygon fill="none" stroke="black" points="275.62,-550 285.62,-546.5 275.62,-543 275.62,-550"/>
</g>
<!-- STRESS_TESTS -->
<g id="node10" class="node">
<title>STRESS_TESTS</title>
<path fill="none" stroke="black" d="M133,-492.5C133,-492.5 46.5,-492.5 46.5,-492.5 40.5,-492.5 34.5,-486.5 34.5,-480.5 34.5,-480.5 34.5,-468.5 34.5,-468.5 34.5,-462.5 40.5,-456.5 46.5,-456.5 46.5,-456.5 133,-456.5 133,-456.5 139,-456.5 145,-462.5 145,-468.5 145,-468.5 145,-480.5 145,-480.5 145,-486.5 139,-492.5 133,-492.5"/>
<text xml:space="preserve" text-anchor="middle" x="89.75" y="-469.45" font-family="Times New Roman,serif" font-size="14.00">STRESS_TESTS</text>
</g>
<!-- STRESS_TESTS&#45;&gt;TEST_SET_BASE -->
<g id="edge3" class="edge">
<title>STRESS_TESTS&#45;&gt;TEST_SET_BASE</title>
<path fill="none" stroke="black" d="M138.75,-492.72C138.75,-511.33 138.75,-537.5 138.75,-537.5 138.75,-537.5 275.7,-537.5 275.7,-537.5"/>
<polygon fill="none" stroke="black" points="275.7,-541 285.7,-537.5 275.7,-534 275.7,-541"/>
</g>
<!-- TEST_APP -->
<g id="node11" class="node">
<title>TEST_APP</title>
<path fill="none" stroke="black" d="M117.62,-708.5C117.62,-708.5 61.88,-708.5 61.88,-708.5 55.88,-708.5 49.88,-702.5 49.88,-696.5 49.88,-696.5 49.88,-684.5 49.88,-684.5 49.88,-678.5 55.88,-672.5 61.88,-672.5 61.88,-672.5 117.62,-672.5 117.62,-672.5 123.62,-672.5 129.62,-678.5 129.62,-684.5 129.62,-684.5 129.62,-696.5 129.62,-696.5 129.62,-702.5 123.62,-708.5 117.62,-708.5"/>
<text xml:space="preserve" text-anchor="middle" x="89.75" y="-685.45" font-family="Times New Roman,serif" font-size="14.00">TEST_APP</text>
</g>
</g>
</svg>
