<?xml version="1.0" encoding="UTF-8" standalone="no"?>
<!DOCTYPE svg PUBLIC "-//W3C//DTD SVG 1.1//EN"
 "http://www.w3.org/Graphics/SVG/1.1/DTD/svg11.dtd">
<!-- Generated by graphviz version 14.1.1 (20251213.1925)
 -->
<!-- Title: Dependencies Pages: 1 -->
<svg width="318pt" height="285pt"
 viewBox="0.00 0.00 318.00 285.00" xmlns="http://www.w3.org/2000/svg" xmlns:xlink="http://www.w3.org/1999/xlink">
<g id="graph0" class="graph" transform="scale(1 1) rotate(0) translate(4 280.5)">
<title>Dependencies</title>
<polygon fill="white" stroke="none" points="-4,4 -4,-280.5 314.25,-280.5 314.25,4 -4,4"/>
<text xml:space="preserve" text-anchor="middle" x="155.12" y="-7.2" font-family="Times New Roman,serif" font-size="14.00">simple_qr &#45; Dependencies</text>
<!-- simple_qr -->
<g id="node1" class="node">
<title>simple_qr</title>
<polygon fill="lightblue" stroke="black" points="70.75,-168.5 0,-168.5 0,-132.5 70.75,-132.5 70.75,-168.5"/>
<text xml:space="preserve" text-anchor="middle" x="35.38" y="-145.45" font-family="Times New Roman,serif" font-size="14.00">simple_qr</text>
</g>
<!-- simple_file -->
<g id="node2" class="node">
<title>simple_file</title>
<polygon fill="lightblue" stroke="black" points="301.25,-276.5 223.75,-276.5 223.75,-240.5 301.25,-240.5 301.25,-276.5"/>
<text xml:space="preserve" text-anchor="middle" x="262.5" y="-253.45" font-family="Times New Roman,serif" font-size="14.00">simple_file</text>
</g>
<!-- simple_qr&#45;&gt;simple_file -->
<g id="edge1" class="edge">
<title>simple_qr&#45;&gt;simple_file</title>
<path fill="none" stroke="black" stroke-dasharray="5,2" d="M35.25,-168.82C35.25,-199.63 35.25,-258.5 35.25,-258.5 35.25,-258.5 211.92,-258.5 211.92,-258.5"/>
<polygon fill="black" stroke="black" points="211.92,-262 221.92,-258.5 211.92,-255 211.92,-262"/>
</g>
<!-- simple_testing -->
<g id="node3" class="node">
<title>simple_testing</title>
<polygon fill="lightblue" stroke="black" points="310.25,-204.5 214.75,-204.5 214.75,-168.5 310.25,-168.5 310.25,-204.5"/>
<text xml:space="preserve" text-anchor="middle" x="262.5" y="-181.45" font-family="Times New Roman,serif" font-size="14.00">simple_testing</text>
</g>
<!-- simple_qr&#45;&gt;simple_testing -->
<g id="edge2" class="edge">
<title>simple_qr&#45;&gt;simple_testing</title>
<path fill="none" stroke="black" stroke-dasharray="5,2" d="M71.09,-156.5C126.09,-156.5 225.25,-156.5 225.25,-156.5 225.25,-156.5 225.25,-157.65 225.25,-157.65"/>
<polygon fill="black" stroke="black" points="221.75,-156.5 225.25,-166.5 228.75,-156.5 221.75,-156.5"/>
</g>
<!-- base -->
<g id="node4" class="node">
<title>base</title>
<polygon fill="lightgray" stroke="black" points="289.5,-132.5 235.5,-132.5 235.5,-96.5 289.5,-96.5 289.5,-132.5"/>
<text xml:space="preserve" text-anchor="middle" x="262.5" y="-109.45" font-family="Times New Roman,serif" font-size="14.00">base</text>
</g>
<!-- simple_qr&#45;&gt;base -->
<g id="edge3" class="edge">
<title>simple_qr&#45;&gt;base</title>
<path fill="none" stroke="black" stroke-dasharray="5,2" d="M71.07,-144.5C134.96,-144.5 262.25,-144.5 262.25,-144.5 262.25,-144.5 262.25,-143.35 262.25,-143.35"/>
<polygon fill="black" stroke="black" points="265.75,-144.5 262.25,-134.5 258.75,-144.5 265.75,-144.5"/>
</g>
<!-- testing -->
<g id="node5" class="node">
<title>testing</title>
<polygon fill="lightgray" stroke="black" points="289.5,-60.5 235.5,-60.5 235.5,-24.5 289.5,-24.5 289.5,-60.5"/>
<text xml:space="preserve" text-anchor="middle" x="262.5" y="-37.45" font-family="Times New Roman,serif" font-size="14.00">testing</text>
</g>
<!-- simple_qr&#45;&gt;testing -->
<g id="edge4" class="edge">
<title>simple_qr&#45;&gt;testing</title>
<path fill="none" stroke="black" stroke-dasharray="5,2" d="M35.25,-132.18C35.25,-101.37 35.25,-42.5 35.25,-42.5 35.25,-42.5 223.57,-42.5 223.57,-42.5"/>
<polygon fill="black" stroke="black" points="223.57,-46 233.57,-42.5 223.57,-39 223.57,-46"/>
</g>
</g>
</svg>
